<svg width="116" height="116" viewBox="0 0 116 116" fill="none" xmlns="http://www.w3.org/2000/svg">
<circle cx="58" cy="58" r="58" fill="url(#paint0_linear_1_37)"/>
<path d="M75.3281 54.4732C75.1167 54.2923 74.3184 53.519 73.5747 52.8829C69.2149 48.8821 57.8415 42.3337 51.8886 40.3349C50.9846 40.0137 48.699 39.3339 47.4778 39.2903C46.3076 39.2903 45.1922 39.5148 44.1277 39.9701C42.8008 40.6062 41.7364 41.6072 41.1531 42.789C41.0259 43.0668 40.8749 43.5322 40.7308 44.0278C40.3321 45.3985 40.024 46.8074 39.8328 48.222C39.48 50.8325 39.2904 54.2683 39.2904 57.975C39.2904 60.5658 39.3924 63.0266 39.5671 65.1689C39.7945 67.9578 39.9062 71.2282 41.3646 73.6163C42.5347 75.5247 44.8203 76.7096 47.2664 76.7096H47.4778C50.5475 76.6195 54.3569 74.7485 57.1228 73.414C62.7102 70.7183 69.7499 66.5115 73.2947 63.3703C73.5215 63.1693 73.7452 62.9701 73.9726 62.7697C74.3854 62.4058 75.0684 61.7836 75.4338 61.3396C76.2869 60.3854 76.7097 59.2036 76.7097 58.0218C76.7097 56.7028 76.2322 55.4742 75.3281 54.4732Z" fill="white"/>
<defs>
<linearGradient id="paint0_linear_1_37" x1="58" y1="0" x2="58" y2="116" gradientUnits="userSpaceOnUse">
<stop stop-color="#FF395C"/>
<stop offset="1" stop-color="#FF5C29"/>
</linearGradient>
</defs>
</svg>
